<svg xmlns="http://www.w3.org/2000/svg" viewBox="0 0 64 64" role="img" aria-labelledby="title">
  <title>Admin Fox</title>
  <defs>
    <linearGradient id="fox-orange" x1="12" y1="12" x2="52" y2="52" gradientUnits="userSpaceOnUse">
      <stop offset="0" stop-color="#ffb45f"/>
      <stop offset="1" stop-color="#d2683b"/>
    </linearGradient>
  </defs>
  <path fill="url(#fox-orange)" d="M20 10 8 30l14-5zm24 0-2 15 14 5z"/>
  <path fill="url(#fox-orange)" d="M32 14c-12.15 0-22 9.18-22 20.5C10 46.96 19.85 56 32 56s22-9.04 22-21.5C54 23.18 44.15 14 32 14z"/>
  <path fill="#fff4e2" d="M20 36c3.17 8.23 7.42 14 12 14s8.83-5.77 12-14c-3.3-2.94-7.26-4.5-12-4.5s-8.7 1.56-12 4.5z"/>
  <path fill="#fff0d8" d="m17 27 7-3-5-7zm30-10-5 7 7 3z"/>
  <circle cx="24" cy="30" r="2.3" fill="#30231f"/>
  <circle cx="40" cy="30" r="2.3" fill="#30231f"/>
  <path fill="#30231f" d="M32 33.6c2.18 0 3.95 1.1 3.95 2.45 0 .91-.82 1.7-2.03 2.13L32 42.2l-1.92-4.02c-1.21-.43-2.03-1.22-2.03-2.13 0-1.35 1.77-2.45 3.95-2.45z"/>
  <path fill="#6b3d34" d="M25.5 40.1c1.9 1.63 4.03 2.45 6.5 2.45s4.6-.82 6.5-2.45c-1.61 4.08-3.78 6.18-6.5 6.18s-4.89-2.1-6.5-6.18z"/>
</svg>
