<svg xmlns="http://www.w3.org/2000/svg" viewBox="0 0 320 320" fill="none">
  <defs>
    <linearGradient id="avatar-grad" x1="40" y1="30" x2="286" y2="292" gradientUnits="userSpaceOnUse">
      <stop stop-color="#FFF5EA" />
      <stop offset="0.5" stop-color="#F9D3B7" />
      <stop offset="1" stop-color="#D46E45" />
    </linearGradient>
    <linearGradient id="avatar-stroke" x1="64" y1="44" x2="250" y2="278" gradientUnits="userSpaceOnUse">
      <stop stop-color="#FFF9F4" stop-opacity="0.8" />
      <stop offset="1" stop-color="#FFF9F4" stop-opacity="0.1" />
    </linearGradient>
  </defs>
  <rect width="320" height="320" rx="96" fill="url(#avatar-grad)" />
  <rect x="22" y="22" width="276" height="276" rx="78" stroke="url(#avatar-stroke)" stroke-width="2" />
  <circle cx="92" cy="84" r="40" fill="#FFFFFF" fill-opacity="0.26" />
  <circle cx="246" cy="232" r="56" fill="#102542" fill-opacity="0.12" />
  <path d="M110 80c56 8 95 31 120 70 15 24 22 46 22 68 0 18-5 32-16 42-11 11-27 16-50 16-21 0-47-5-77-16-5-2-8-6-8-12 0-5 2-9 6-12 4-4 9-4 15-2 24 9 44 14 60 14 27 0 41-11 41-33 0-11-4-24-13-39-21-35-55-57-104-66l4-30Zm26 44c26 0 44 16 44 40 0 24-18 40-44 40-25 0-43-16-43-40 0-24 18-40 43-40Zm0 23c-11 0-18 7-18 17s7 17 18 17c12 0 19-7 19-17s-7-17-19-17Z" fill="#11253F" />
</svg>
