<?xml version="1.0" encoding="UTF-8"?>
<svg id="_图层_1" data-name="图层 1" xmlns="http://www.w3.org/2000/svg" viewBox="0 0 640 640">
  <defs>
    <style>
      .cls-1 {
        fill: #010101;
      }

      .cls-2 {
        fill: #a7a7a7;
      }

      .cls-3 {
        fill: #6c6c6c;
      }

      .cls-4 {
        fill: #595959;
      }

      .cls-5 {
        fill: #232323;
      }

      .cls-6 {
        fill: #5b5b5b;
      }

      .cls-7 {
        fill: #190b0b;
      }

      .cls-8 {
        fill: #e2d28f;
      }

      .cls-9 {
        fill: #313132;
      }

      .cls-10 {
        fill: #2c2c2c;
      }

      .cls-11 {
        fill: #7b7052;
      }

      .cls-12 {
        fill: #a6594f;
      }

      .cls-13 {
        fill: #3b3b3b;
      }

      .cls-14 {
        fill: #ccc;
      }

      .cls-15 {
        fill: #c3c3c3;
      }

      .cls-16 {
        fill: #575757;
      }

      .cls-17 {
        fill: #4e4e4e;
      }

      .cls-18 {
        fill: #a3574e;
      }

      .cls-19 {
        fill: #fff;
      }

      .cls-20 {
        fill: #121212;
      }

      .cls-21 {
        fill: #97b1b2;
      }

      .cls-22 {
        fill: #040404;
      }

      .cls-23 {
        fill: #c5c5c5;
      }

      .cls-24 {
        fill: #565656;
      }

      .cls-25 {
        fill: #080808;
      }

      .cls-26 {
        fill: #101010;
      }

      .cls-27 {
        fill: silver;
      }

      .cls-28 {
        fill: #8b8b8b;
      }

      .cls-29 {
        fill: #fefefe;
      }

      .cls-30 {
        fill: #585858;
      }

      .cls-31 {
        fill: #a4a4a6;
      }

      .cls-32 {
        fill: #0a0a0a;
      }

      .cls-33 {
        fill: #252525;
      }

      .cls-34 {
        fill: #2d2d2d;
      }

      .cls-35 {
        fill: #090909;
      }

      .cls-36 {
        fill: #999;
      }
    </style>
  </defs>
  <path class="cls-19" d="M409.04,572.56c4.61,15.45-8.96,39.5-25.42,46.85-4.91,2.2-10.21,2.8-20.82,3.99-11.45,1.3-18.28,2.07-23.07,1.01-1.14-.26-2.18-.62-3.13-1.1-14.59-7.43-20.9-42.68-7.63-60.7,18.43-25.05,72.82-14.32,80.07,9.95Z"/>
  <g>
    <path class="cls-4" d="M253,250c2.74,2.17,2.17,5.42-1.71,9.77-1.62,9.65-2.08,19.71-1.37,30.17.27,7.1-1.8,10.41-6.22,9.91-16.92-18.51-43.14-14.88-55.39,6.83-2.41,6.91-5.51,13.2-9.3,18.88-11.67-3.82-13.68-9.07-5.02-18.37l-14.08-8.07c-3.46-2.6-3.96-6.05-.61-9.13,9.88-5.81,15.25-13.74,16.1-23.77,1.39-50.5,27.19-95.85,72.01-120.29,4.3-2.34,31.26-14.89,34.97-12.66,1.09.66,1.78,1.14,2.15,2.43.48,1.68-13.41,30.43-15.51,30.99-.93.25-1.82.17-2.68-.28-16.22-22.45-29.94,19.94-33.8,32.07-3.04,9.54-6.49,27.64,3.92,6.76l6.17-19.74c4.46-12,13.91-32.75,23.45-10.73,4.46,15.42,5.89,16.78,4.29,4.07,12.26-26.48,25.46-52.14,39.6-76.99,11.33-21.44,19.34-5.3,24.6,10.01l6.94,24.58c2.94,9.1,4.13,11.23,3.56,6.4,8.85-20.35,16.97-41.18,24.37-62.51,4.17-9.86,8.57-18.51,16.93-5.81,6.86,10.41,8.47,25.5,9.57,37.64,1.05,6.35,2.49,5.77,6.82,1.61l7.94-20.05c6.96-9.68,11.59,6.17,13.15,11.82,5.45,19.66,6.96,41.45,7.1,61.67-.16,7.93,4.45,4.28,13.85-10.94,7.4-9.84,11.29-7.71,13.92,3.3.83,3.46,2.6,13.13-.75,14.41,1.13,8.84.68,17.42,0,26-1.57,3.49-4.05,5.76-3,10-2.19,1.9-2.35-2.29-2.25-2.1,9.24,17.22,13.95,34.99,18.5,54.33,1.16,4.96,4.25,19.98-1.91,21.55-.75.19-13.83-4.21-14.68-4.62l-.65-2.15c-.87-.28-.86-.62,0-1,4.05-.28,8.55.68,13.51,2.89,2,.31,1.51-4.55.49-7.89l-2.06-1.74c-2.46-21.35-8.73-44.01-20.17-62.2-3.75-1.14-7.9-1.24-12.43-.29-4.75.34-7.19-.92-7.33-3.77l1.19-1.83,11.05-.14c10.07-.93,6.8-1.12-9.8-.57-1.72-2.99-2.54-2.14-2.44,2.55-2.86,4.55-5.68-1.6-5.14-5.33-3.66,1.9-6.62,2.35-8.86,1.33-.81-1.26-1.14-2.07-.98-2.43-9.6,4.98-19.22,7.06-28.88,6.22-10.29-3.52-20.61-5.79-30.95-6.8-.05,3.81-1.06,6.79-5.42,7.05l-30.44-3.85c-25.09-.39-9.87,1.6,3.29.88,11.49,2.22,22.84,3.11,34.07,2.66.93-4.98,4.98-6.13,12.16-3.45,16.78,7.25,29.5,7.4,45.19-1.49l1.97,1.19c.36.75.66,1.89.12,2.24-2.82,1.85-13.15,8.43-15.76,8.48-.78.02-1.4-.96-1.85-1.72-.96,3.32-13.45,3.06-15,0l-1.82,1.38c-6.31-2.19-12.72-3.94-19.27-5.28-1.03,3.87-3.09,5.29-7.03,5.05-16.72-2.03-32.93-3.35-48.63-3.97-3.26,3.52-8.03,5.56-14.32,6.14-.59,7.48-2.15,12.05-10.85,12.52-7.83-.15-15.25.85-22.27,2.97.31,6.57,2.16,13.25,5.55,20.05,2.29,5.13.77,17.27-5.86,14.14-.44-.55-.44-1.22,0-2-1.46-2.7.07-4.78,3-4,.75-2.04.6-3.95,0-6-2.94.43-3.99-1.8-2-4l-2-4c-2.82.75-3.3-1.39-1-3l-1-5c-2.29-.51-2.29-2.48,0-3-.88-1.61-.66-3.31,0-5-.84-2.63,3.65-4.06,6-3l1.64-1.97c36.2-2.95-5.78-2.81-10.42,3.4-4.08,5.46.5,20.92,3.78,26.57Z"/>
    <path class="cls-22" d="M236,44l-.23,2.21c-23.25,20.25-31.25,58.58-32.26,88.55-.1,2.96,1.44,24.14,4.15,26.38.57.47,10.43-7.79,9.36-10.69-.89-22.25,2.09-44.11,7.03-66.46.16-.73.64-1.39,1.14-2.08s1.14-1.31,1.8-1.91c2.77-10.6,5.81-21.22,11.87-30.43,1.49-.89,1.87-.08,1.13,2.43-5.13,15.04-8.76,31.68-10.87,47.63-.76,5.73-4.81,45.68-3.14,47.37.26.26,5.16.06,6.27-.24,2.53-.67,12.73-7.67,16.51-9.48,5.36-2.58,12.08-5.37,17.7-7.3s21.33-4.7,24.86-6.9c1.34-.84,12.64-23.06,15.84-27.4,12.89-17.48,21.07-11.77,28.84,5.8,2.12,4.79,3.67,14.18,5.52,17.47,2.29,4.08,6.1,2.94,8.23-.69,7.47-12.72,11.35-31.87,18.69-45.31,1.87-3.42,5.69-9.56,10.05-9.53,6.46.06,13.15,11.97,15.26,17.3.98,2.47,5.58,20.28,6.74,20.24,2.7-.07,7.87-22.85,18.01-15.99,14.57,9.85,15.28,52.78,15.49,69.01-.05,4.77,1.28,5.77,4,3,4.92-3.76,9.28-13.2,16.45-12.01,3.67.61,6.23,6.77,7.09,9.97,2.92,10.77,2.1,19.31.45,30.05.1,2.11-.24,4.11-1,6-.07.32.07.68,0,1-3.05,1.74-3.73-1.06-2.03-8.41l-.97-9.59c-.13-5.26-.64-15.95-3.19-20.31-2.16-3.7-4.3-.77-6.32,1.29-3.3,3.37-12.23,18.11-15.17,18.9-6.21,1.68-4.05-14.71-4.33-18.38-1.23-16.6-3.67-44.64-10.64-59.4-1.31-2.78-1.69-3.9-5.25-2.94l-8.7,21.75c-12.03,12.68-10.46-7.77-11.68-15.14-1.27-7.66-5.53-24.46-12.18-28.82-.97-.64-1.68-1.32-2.99-.93-.45.14-4.54,7.08-4.97,8.07-4.54,10.34-7.85,23.1-12.1,33.9-2.9,7.38-12.68,25.4-13.48,31.6-.22,1.74,1.6,6.05-.52,6.41-1.79.3-2.41-1.8-2.99-2.99-6.67-13.58-7.91-31.76-15.73-46.27-1.18-2.2-5.37-8.34-8.07-7.63-3.43.9-13.61,19.14-15.88,23.21-11.36,20.38-20.16,42.21-31.26,62.73-1.96,2,2.59,15.05-1.05,14.94-2.51-.08-6.71-23.79-12.51-26.49s-11.13,10.75-12.99,15.01c-3.95,9.05-6.38,22.66-10.57,30.43-3.08,5.72-8.6,4-8.41-1.3.15-4.37,5.18-18.3,6.96-23.15,3.34-9.07,13.52-36.1,27.01-29.97,1.86.85,5.54,6.96,7.5,6.48,1.6-.4,11.26-24.27,13.7-27.33,1.24-.96.16-2.45-.7-2.66-1.04-.26-7.76,1.97-9.46,2.52-47.05,15.2-82.51,54.62-91.74,103.26-2.2,11.6-1.7,24.32-4.75,35.25-2.03,7.26-15.44,14.04-16.42,17.64-.43,1.58.02,1.78.91,2.8,3.27,3.74,11.76,6.25,15.85,9.65,1.22,4.48-7.45,8.19-5.42,11.89.32.58,7.51,6.11,8.04,5.98,1-.23,6.46-15.65,8.32-18.69,11.85-19.46,33.23-25.9,52.53-12.14,3.02,2.16,6.46,8.42,7.62,3.3,1.79-7.88.93-15.36.99-22.92.04-5.6-.79-10.17,1.84-15.25,1.93-3.72,3.42-2.55,3.21-8.29-3.69-7.18-9.83-24.64-.2-29.19,2.29-1.08,6.57-2.24,5.2,1.19-2.26-.19-4.67,1.23-6,3-.58,1.7-.92,3.35,0,5,0,.99-.08,2.02,0,3l1,5c.16.69.71,2.18,1,3l2,4c.58,1.22,1.57,2.99,2,4,.62,2.01.77,3.99,0,6-.65,1.14-2.1,2.59-3,4l-1.63,7.24c1.76,6.18,2.77,45.12-.3,47.01-1.12.69-1.69.71-2.73-.21-15.48-20.25-41.03-28.07-55.98-2.42-18.54,31.79-.23,66.82,31.74,80.21,3.72,1.56,29.29,10.4,27.06,2.82-2.53-3.16-3.79-8.71.84-4.66,11.99,2.1,10.98,27.16-4.32,19.98-12.84-15.53-7.59,7.38,6.79,7.83,17.6.55,12.73-23.76,1.73-30.28l-.2-2.53c-8.7-.66-5.78-4.68,1.77-3.63,6.33.88,10.91,8.29,13.23,13.63l1.01.23c.8,10.04,4.74,15.65,11.8,16.84,22.29.02,43.71,5.37,64.26,16.05,53.69,11.28,145.24-6.66,127.69-79.95-4.4-19.93-7.61-40.14-7.76-60.16-15.76,1.98-31.54,3.9-47.32,5.78-4.71,1.08-7.62,3.04-5.28,8.01,14.61-3.07,29.15-3.98,43.63-2.73,6.85,1.43,8.1,11.11.97,10.95-7.15.52-14.23,1.39-21.22,2.58-.83,15.32-2.06,30.49-3.68,45.5l-6.91-.07c-2.52,4.7-4.72,5.04-6.62,1.01-6.64-2.14-7.73-3.98-9.51-10.49-2.72-9.95-1.85-23.07-.31-33.2-.24-1.42-1.47-2.55-3.68-3.38-1.74-2.5-1.04-44.6.58-46.27,1.3-1.34,2.57-.71,3.14,1.02l.61,12.06c1.52,1.46,3.72.99,6.58-1.4,10.57-3.12,22.57-1.15,33.01.63,2.59.42,6.62,1.5,9.23,2.27,4.48,1.33,7.37,5.95,7.84-1.75.22-3.61-1.56-13.73-2.3-17.79-2.18-12.04-6.59-25.51-11.1-36.9-2.08-5.25-6.6-9.84-5.66-15.83,1.38.37,1.94,2.04,2.99,3,14.15,12.93,22.84,48.5,24.04,67.46.75,11.71-.89,24.35-.04,36.04,1.39,19.12,12.72,39.51,10.88,58.89-4.3,45.16-57.27,65.09-96.39,67.61-4.79.31-25.35-.91-27.53.46-1.12.7-1.05,1.68-.82,2.84.42,2.08,4.93,8.68,6.05,12.02,1.81,5.43,3.09,9.72-2.19,13.69h-2.31c-12.07-35.24-52.1-48.72-85.89-46.65-1.55,2.87-2.55,6.3-3,10.28-25.8,12.29.91,20.63,14.89,22.36,15.49.54,30.67,1.77,45.97,4.31,9.85,1.63,27.85,6.03,30.34,16.69,4.2,5.87,8.34,16.81,11.98,21.25,2.56,3.13,10.04,6.85,13.5,9.77,11.53,9.72,23.53,25.03,24.45,40.63.76,13-10.92,35.48-1.93,46.84,3.62,4.58,12.77,7.2,6.56,14.57-7.04,8.34-23.86,4.67-33.56,6.93l-2.55-.6c-2.1-8.31-3.61-16.76-4.52-25.36l-1.45-.04c-12.71,5.51-25.87,9.23-39.5,11.17.06,4.97.68,9.92,1.84,14.83,1.16,5.32.23,7.98-2.82,8-3.74,2.59-9.61,2.4-9.29-3.46l-2.15-16.94c-6.46-1.51-11.38-2.65-15.64-8.24-6.07-7.95-10.85-44.42-9.81-54.95,1.66-16.65,11.4-16.12,12.61-.04,1.58,16.65,4.65,32.77,9.2,48.36,5.53,3.73,36.86-4.08,43.95-7.05,2.84-1.19,21.23-11.35,21.95-12.75.9-1.76-.08-6.06-.57-8.12-6.73-17.86-12.74-35.95-18.03-54.27-8.66-24.77-15.75-30.2-42.52-34.54-22.61-.42-43.93-4.43-63.95-12.01-21.85,43.73-39.48,92.08-48.11,140.53-.56,7.34-3.1,10.83-7.63,10.47-1.17.03-2.71,1.4-4.01.58-1.4-.88-2.41-4.87-2.43-6.67-.2-13.26,9.46-45.36,13.73-59.12,9.7-31.24,23.07-63.92,43.28-89.74,2.09-6.56-6.1-9.37-2.07-18.06,3.4-7.33,12.19-8.5,13.34-10.14.77-1.09.09-5.64-.84-6.85-1.86-.76-3.86-.76-6,0-1.53.46-3.01,1.49-4.73,1.76-8.73,1.38-17.53-1.75-21.82-9.71-1.6-2.97-3.03-12.42-3.65-12.86-.69-.48-11.77-3.17-14.33-4.16-23.37-9.08-37.51-26.76-41.36-51.64-.52-3.39.58-6.79-.87-10.13-1.85-4.27-18.75-12.6-15.79-18.23,1.27-2.42,6.81-4.88,3.62-9.38-.28-.4-6.51-2.99-8.56-4.67-15.02-12.27,5.62-14.72,8.76-25.18,1.1-3.65-.58-11.62-.28-16.29s1.32-12.22,2.09-16.91c1.17-7.17,6.59-20.72,6.85-26.17.3-6.5-1.83-4.66-5.18-5.66-16.1-4.83-6.25-13.89,4.24-17.26,6-1.93,14.48.29,10.03-8.04-6.62-12.39-12.1-16.87-15.74-32.25-.76-3.22-3.97-12.86.37-14.13,5.14-1.5,16.14,15.6,19.82,18.94,1.3.55,7.61,7.02,8.52,5.97,1.1-1.27-2.56-13.01-2.9-15.59-3.32-24.93,2.63-52.13,13.04-74.76,5.32-11.56,14.72-29.24,27.86-32.64,2.66.32,2.54,1.24,0,2Z"/>
    <path class="cls-4" d="M341,624c.87.28.86.62,0,1-20.69,2.36-44.11,3.25-65.5,2-16.56-.97-37.27-5.33-52.77-11.23-4.06-1.55-7.33-4.89-11.74-4.76,1.28-1.09,2.45-.46,3.18-2.37,3.62-9.46,4.54-22.02,7.08-31.87,10.42-40.47,24.89-79.5,42.83-117.17.34-.69.83-1.22,1.58-1.47,3.28-1.07,15.24,5.55,20.08,6.63,21.21,4.7,42.98,2.15,64.95,10.05,21.77,7.83,24.37,33.46,30.58,52.42,3.24,9.9,10.47,25.56,12.26,34.73.51,2.6,1.06,5.54-.06,8.04-.83,1.84-21.28,13.01-24.61,14.39-7.23,2.98-39.15,10.12-44.47,5.72-4.72-3.9-8.47-49.79-11.61-58.39-4.23-6.05-6.34,5.61-6.69,8.89-.97,8.87,4.09,46.06,8.89,52.91.91,1.29,4.29,4.54,5.65,5.35,2.99,1.77,9.05,1.84,10.45,3.55,1.57,1.91,1.91,17.95,3.41,21.6,1.68,2.97,3.99.96,6.49,0Z"/>
    <path class="cls-12" d="M369,469c.53,1.36-.37,5.17,0,7-6.63-9.26-19.75-12.31-30.76-14.74-16.12-3.55-29.82-2.97-45.73-4.27-6.71-.55-27.16-5.5-27.6-13.48-.5-9.09,10.2-9.69,11.61-12.49,1.49-2.96-1.16-8.44,3.5-10.5,5.32-2.36,22,.39,28.19,1.77,25.93,5.8,47.01,15.06,57.46,40.54,1.1,2.69,3.18,5.79,3.33,6.17Z"/>
    <path class="cls-29" d="M390,616c-18.3,4.26-30,6.83-49,9v-1c3.91-4.35-4.05-22-.07-24.57.71-.46,9.65-1.34,12.08-1.92,3.54-.84,7.54-1.89,10.99-3.01,4.76-1.56,15.66-7.63,19.37-6.37.89.3,1.18.66,1.47,1.54,2.56,7.7.76,18.64,5.16,26.34Z"/>
    <path class="cls-32" d="M526,334c-1.83-1.59,1.4-2.14,1.97-2.48,5.6-3.32,12.14-5.12,17.91-8.14,11.25-5.89,27.51-17.97,12.03-29.79-3-2.29-6.51-3.02-8.91-5.58,25.2,6.45,24.31,22.39,3.92,35.41-3.46,2.21-24.67,12.53-26.91,10.58Z"/>
    <path class="cls-25" d="M572,330c-1.08-.98,1.41-2.78,2.09-3.4,7.61-6.96,19.08-13.78,16.86-26.05-.45-2.47-3.68-4.13-2.46-6.53,14.58,7.83,2.63,24.41-6.47,31.52-1.44,1.13-8.74,5.63-10.02,4.47Z"/>
    <path class="cls-33" d="M461,192c-.77,3.77-1.64,4.98-3,8-2.74-4.58-.18-10.95,0-15.5.14-3.47.09-7.03,0-10.5.98,2.3,1.81,7.17,1.92,9.6.12,2.71-2.9,6.7,1.08,8.4Z"/>
    <path class="cls-9" d="M240,52c-1.5-2.76-1.91-.27-2.58.87-4.96,8.49-6.79,18.08-10.42,27.13l-1.52-2.4c2.08-11.26,6.19-21.83,12.32-31.69-.9-.31-1.45-.97-1.8-1.91v-2c1.01-.26,1.3-1.13,3-.59,6.16,1.93,2.4,6.47,1,10.59Z"/>
    <path class="cls-21" d="M434,154l.78.72c.44.87-.02,2.92.23,3.29.14.21,2.15-1.19,2.99-1.01-.34.26-.48,1.5-1.58,1.88-3.51,1.22-2.38-1.96-2.42-4.88Z"/>
    <path class="cls-31" d="M272,421h-6c1.75-.53,4.04-2.54,6,0Z"/>
    <path class="cls-33" d="M461,191c.35-1.68.75-4.38,1-6-.16,1.87.78,4.9-1,6Z"/>
    <path class="cls-29" d="M412,199c1.99-1.09,9.53-4.61,11-3.01.46.5-1,4.84.98,6.55.58.5,1.64.24,2.02.46,8.98,5.08,18.04-3.24,22.85,4.65,8.8,14.43,18.86,46.63,19.15,63.35,1.35,3.46,1.25,6.13-.28,8.01-15.14-5.49-31.85-6.73-47.79-4.33-2.74-2.5-3.82-6.49-3.22-11.98-2.34-7.75-3.66-9.56-11.41-8.34l-2.23-1.72c-5.18-10.17-11.9-2.74-12.26,5.83-2.07,4.06-5.68,2.21-6.93-1.49-3.22-12.11-4.76-10.86-12.18-3.35l-2.31-.88c-3.45-7.39-8.44-5.72-8.33,2.25l-2.07,2.99c-.3,3.54-1.6,4.81-3.9,3.8-7.27-11.63-8.7,5.97-9.1,12.2-1.72,2.48-9.14,2.21-12,1-2.59.73-5.26,1.07-8,1-7.64,1.92-16.02,2.96-24,3-6.29,2.26-12.62,4.59-19,7,1.19,1.25-.52,2.23-2,2-4.96,5.11.49,7.22,16.35,6.33,15.1-.92,29.99-.7,44.65.67,2.72,1.16,3.32,7.76,0,8-1.51,1.71-4.63,1.91-6,0l-8,1c-.62,1.23-1.39,1.23-2,0l-7,1c-11.95.71-23.73,2.65-35.34,5.82-5.29,1.95-9.12,4.2-4.66,9.18l5,1c.49,0,.9.07,1.08.31.68.92-.45,9.09-1.08,10.69-.83,4.77-.97,10.13,0,15,1.5,9.77,4.55,17.83,15.95,19.48,4.08,7.33,6.68,7.79,7.78,1.39,1.06-2.48,4.47-3.09,6.73-1.77,5.68,8.53,8.42,5.51,7.4-3.33,7.64-5.59,7.93-13.01,7.17-21.88l-1.7-22.56,20.62-1.49c4.65-.61,7.37.53,8.14,3.43-.67,12.76,1.52,21.39,16.69,19.79,4.56,2.45,9.43,2.13,14.59-.98,9.39,2.84,16.07,4.47,19.83-6.62,1.99-1.35,3.61-1,3.9,1.45-.41,9.26,1.78,17,6.56,23.23,4.03,1.37,6.23,2.45,8.33,6.4,2.54,2.95,4.27,1.18,5.17-5.33l1.83-.04c4.98,4.69,6.91,3.05,5.8-4.93.99-2.72,1.73-5.48,2.21-8.28-1.26-10.17-.54-21.85,1.23-32.27,7.71-.4,15.11-1.72,22.19-3.95,9.31-13.78-16.04-12.35-23.92-11.18l-20,2.96c-2.36-1.2-2.25-6.39.13-7.42,16.28-2.22,32.53-4.13,48.76-5.73.27,3.86.47,7.72.61,11.59.63,3.21,1.07,6.92,0,10,.38,4.07,1.05,8.07,2,12,3.27,12.44,6.88,26.99,7.49,40.13,1.17,25.4-9.31,42.32-31.96,54.39-25.9,13.8-72.9,19.82-100.86,10.38-19.42-9.02-39.47-16.35-60.9-14.84-7.09-1.04-10.93-6.41-11.51-16.11l-2.25-4.96c-5.58-9.29-23.2-16.79-20.76.3,7.34,10.39-10.19,5.46-15.44,3.82-21.89-6.85-41.19-20.31-47.08-43.87-7.85-31.4,16.08-71.96,49.54-49.08,4.48,5.15,9.2,9.28,14.17,12.39,4.06-.76,2.63-42.29.93-47.34,0-1.81.25-4.11,1.63-5.22,13.72-6.44-6.01-27.76-1.53-35.02,3.06-4.96,23.37-2.59,28.8-5.21,7.61-3.67-.72-10.66,8.45-12.55,5.43-1.12,7.25,1.19,10.94-5.06,7.04.1,14.86.26,21.84.85,5.34.45,28.57,4.68,31.57,2.57,1.51-1.06.59-4.03.93-4.58.65-1.03,20.92,4.57,23.5,6.01h15c3.81,0,14.09-7.12,17.5-9Z"/>
    <path class="cls-15" d="M359,258c.24-4.08-.71-10.24,4.71-11.86,4.75-1.42,6.76,5.85,7.79,5.84,1.57-.01,3.54-8.65,9.51-5.5,4.55,2.4,3.39,12.44,7.48,12.52.97.02.23-14.95,10.99-13,3.53.64,3.96,5.33,6.54,6.53,1.6.75,3.88-1.09,6.26-.39,3.29.96,6.13,8.24,6.67,11.4.46,2.68-1.15,8.38,1.69,9.31,4.75,1.55,18.41-.55,24.79.21,3.27.39,9.56,1.49,12.85,2.15,1.5.3,9.04,3.5,9.72,2.77.24-.26.03-5.73,0-7,1.36,1.6,2.95,8.5.48,9-.98.2-11.71-4.72-14.48-4-11.56-1.68-22.69-1.5-33.41.54-3.21,2.68-5.26,3.16-6.15,1.42.43-5.18-.21-9.48-1.91-12.91.46-2.48-2.15,1.09-2.22,1.32-.97,2.99-1.57,34.63-1.22,38.97.42,5.19.49,5.47,4.72,8.34-1.51,9.36-2.98,32.76,2.58,40.14.89,1.18,10.1,6.87,10.75,6.76l2.54-3.39c6.02.73,8.79-1.52,8.31-6.75l1.01-.44c.14-2.41.8-4.08,2-5,1.39,3.48-1.75,6.44-2.02,8.57s2.81,11.04-2.98,7.93c-.75-.4-1.27-1.61-2-2-4.93-2.65-1.92,2.95-3.47,5.53-2.65,4.42-7.32-4.69-8.58-5.48-1.1-.69-2.79-.48-3.88-1.12-8.69-5.15-6.01-22.78-8.08-24.43-1.81-1.43-1.66.44-2.07,1.42-1.91,4.5-3.2,6.46-8.41,7.67-5.48,1.27-8.39-2.04-12.02-2-2.67.03-4.93,3.18-8.97,2.99-2.42-.12-3.94-1.71-6.06-2.03-5.75-.89-9.14,1.43-14.36-3.65-6.18-6.01-2.49-16.41-4.53-19.47s-21.2.7-25.57.06c-.29,11.08,5.8,30.16-.56,39.94-.93,1.43-4.12,2.22-4.98,4.08s2.5,6.46-1.45,8.52c-4.31,2.25-6.23-5.77-8.42-5.56-5.51.52-2.32,4.53-6.05,7.08-4.13,2.83-4.88-4.15-6.55-5.55-2.16-1.81-7.14-1.08-10.99-5.29-4.71-5.16-4.71-8.78-5-15.22-.98-4.92-.8-10.06,0-15,0-1.7.72-10.49,0-11l-5-1c-3.96-2.15-4.28-5.47-.36-7.86,8.55-5.22,30.2-7.06,40.36-7.14l7-1c.67,0,1.33.01,2,0l8-1c2-.02,4.01.06,6,0,2.81-1.91,3.06-5.93,0-8-18.23-1.21-38.51,1.63-56.49,0-3.5-.32-8.87-.87-7.42-5.41.53-1.67,2.47-1.24,2.92-1.58.87.28.86.62,0,1l1.39,1.69c19.7.24,39.44.45,59.21.62,16.45.27,11.03,17.66-3.23,16.11-5.95-1.66-60.73,3.67-58.42,9.01,4.71.55,8.66,1.21,8.14,7.12-1.72,9.55-3.56,31.28,5.18,37.51,4.92,1.33,8.54,3.5,10.84,6.5,2.68-6.51,11.78-6.33,14.91-.24-1.14-5.85,3.81-10.72,7.98-13.31,1.07-11.5.61-23.18-1.36-35.04.01-.81.28-2.11.91-2.44,2.84-1.47,32.45-1.51,34.2.24l.67,2.25c-.64,11.86,5.81,15.36,6.12,1.02l-.88-15.7c.04-6.18.45-7.7,3.23-12.81-3.93-7.73-5.59-16.21-4.98-25.43-3.45-17.18-5.34,1.95-4.8,8.84-.52,3.71-6.45,2.61-7.18-.74-.77-11.18-2.54-10.44-5.31,2.22-14.9,1.16-30.07,2.51-44.9,4.46l-.73-.87c-.87-.28-.86-.62,0-1,7.78-1.53,16.11-2.18,24-3,2.76.07,5.42-.26,8-1,3.27-.22,9.61.84,12-1l.51-1.75c-1.25-8.27,4.43-23.05,9.28-8l3.21-6.25Z"/>
    <path class="cls-26" d="M412,199c-2.93,1.87-18.11,7.76-21.44,8.05-11.72,1.03-23.66-6.93-34.07-7.06-3.35-.04.97,4.31-4.94,5.06-9.7,1.23-23.8-2.39-34.05-3.04-3.34-.21-18.92,1.1-19.49-1.52-.88-3.99,11.69-3.61,13.54-3.53,9.33.41,21.06,2.29,30.18,3.81,10.7,1.78,5.63-4.56,8.2-6.34,4.75-3.28,29.89,7.07,37.74,7.19,7.13.11,23.21-8.04,25.81-7.63,2.85.46-.91,4.64-1.48,5Z"/>
    <path class="cls-5" d="M255,261c-1.57,8.24,1.27,21.02,1.04,30.54-.12,5.24-.43,13.99-.99,19.01-1.29,11.53-11.4-3.86-14.57-6.53-19.99-16.84-40.56-8.21-48.94,15.02-11.03,30.55,6.28,59.47,35.09,70.83,3.69,1.46,23.17,7.31,25.37,5.12,1.54-1.53-2.42-4.46-2.8-5.69-2.87-9.24,5.55-11.91,13.01-9.01,4.98,1.94,7.21,5.75,9.8,9.7,1.3,1.6,1.64,2.93,1,4-4.05-4.89-5.94-10.83-12.76-12.74-1.42-.4-7.76-.67-5.23,1.72.11.11,1.71.22,3,1.01-1.9,1.29-3.24,2.95-4,5-4.43-.36-.18,2.85.02,4.54.58,4.88-2.29,4.92-6.43,4.39-37.1-4.75-70.19-36.09-59.35-75.19,5.74-20.71,22.57-35.91,44.7-26.17,6.88,3.03,11.48,10.54,17.06,14.94.9.71,1.49,2.36,2.51.51.34-.62,1.43-10.64,1.53-12.47.36-6.82.47-16.32,0-23.08-.59-8.45-4.32-9.17.96-17.46-.08.64.12,1.4,0,2Z"/>
    <path class="cls-13" d="M439,350c-.7,2.89-.66,9.63-1,10-1.08,1.14-5.56-5.92-8.51-1.01-.99,1.65.46,6.05-1.97,5.01-1.63-.7-2.59-3.92-3.97-5.03-1.96-1.56-5.14-1.4-7.12-3.88-5.17-6.44-4.72-26.16-4.42-34.58.09-2.5,2.12-4.77.07-7.1-.71-.81-2.37-1.01-2.81-1.66-1.91-2.81-.65-33.6-.26-39.24.14-1.96.77-8.53,1.16-9.84,1.34-4.46,4.15.46,4.62,3.06s-.2,11.83.23,12.27,8.48-3.69,11.49-4.01c9-.96,18.53,1.55,27.51,2.01v1c-6.12-.99-28.95-2.29-33.37.13-2.06,1.13-5.65,7.15-6.63,1.37-.53-3.12-.17-6.37-.98-10.06-.38-1.74.98-2.91-2.01-2.44-.2,7.49.24,15.04.04,22.54-.14,5.47-2.79,16.86-.07,21.76.68,1.22,2.82.65,3.6,1.62,1.47,1.81-1.58,8.72-1.58,11.58,0,5.94.19,15.92,1.24,21.77.34,1.89,2.04,7.52,3.18,8.82,1.74,1.97,4.06,1.69,6.13,2.87,1.04.6,2.05,2.63,2.97,3.04.52.23,1.02-2.76,2.47-3.52,1.96-1.01,6.69-.13,6.99-.51.24-.31.72-6.2,1.98-7.52-.47-12.52,1.62-24.85,2.18-37.32,7.07-2.29,14.51-2.31,21.87-2.13l-.36,1.16c-6.93.64-13.47,1.7-19.61,3.2-.88,12.27-1.89,24.48-3.03,36.64Z"/>
    <path class="cls-5" d="M253,250c-4.83-5.16-8.77-22.91-3.54-28.04,3.9-3.83,17.22-5.25,23.05-5.95,1.56-.19,7.24.26,7.5,0,.49-.5-1.58-8.69,3.73-10.77,3.31-1.3,10.24-2.7,13.68-2.25.98.13.79,1.92.6,2.51-.73,2.31-12.94-.09-14.03,5.99-.53,2.95,1.34,6.79-2.68,8.32-7.39-.58-16.24,2.6-23.31,2.19-.17,0-.78-.9-1.61-1-2.54-.32-6.9,1.85-7.4,4.49-.44,2.33-.3,10.45.07,12.95.62,4.18,3.76,6.57,3.94,11.56Z"/>
    <path class="cls-20" d="M426,203c-2.79-1-2.15-7.94.5-7.98.77-.01,1.57,3.28,3.15,3.83,3.57,1.24,14.64-3.31,16.34.66,1.27,2.96-3.29,3.16-5.61,3.38s-12.95.63-14.38.11Z"/>
    <path class="cls-5" d="M258,255v-6c1.21,2.82,1.81,2.85,0,6Z"/>
    <path class="cls-5" d="M256,245c-.6-1.25-1.04-1.29-2-4l2,4Z"/>
    <path class="cls-5" d="M253,238c-.43-1.88-.79-2.41-1-5l.81.69.19,4.31Z"/>
    <path class="cls-5" d="M252,230c-2-1.35-1.19-3.42,0-5,0,1.67.01,3.33,0,5Z"/>
    <path class="cls-30" d="M236,44c1.21-.37,4.44-.72,4.02,1.51-.53,2.81-6.96,12.86-8.67,17.34-2.36,6.17-2.97,11.1-4.35,17.15-3.65,16.02-7.03,34.07-8.04,50.46-.33,5.33,1.26,20.73-.9,24.1-.73,1.14-9.85,9.42-10.55,9.43-2.4.05-5.31-15.64-5.54-18.45-1.71-20.73,1.62-42.18,8.38-61.7,3.46-9.99,15.08-36.63,25.66-39.84Z"/>
    <path class="cls-18" d="M387,508c.6-.61,2.52.09,3.46,1.04,10.07,10.12,22.08,25.41,21.56,40.43s-10.12,30.24-3.42,44.43c1.64,3.48,9.04,9.44,9.32,10.73,1.07,4.83-17.55,5.05-21.23,3.17-1.27-.64-1.31-1-1.8-2.2-.91-2.21-4.23-19.28-3.75-20.91,1.09-3.65,12.23-6.48,11.9-16.17-.16-4.69-3.99-7.85-4.79-11.29-1.21-5.2-1.11-12.21-2.55-18.45-.96-4.16-9.82-29.63-8.71-30.78Z"/>
    <path class="cls-28" d="M273,394c-.4-1.31-.66-2.67-1-4,.75,1.14,1.73,1.27,2.78,3.72,2.81,6.56.32,13.37,8.18,15.83,4.49,1.41,12.24.11,17.43.57,5.52.49,13.4,2.6,18.84,4.16,16.72,4.8,28.4,13.8,46.24,14.76,32.54,1.76,80.49-3.47,102.37-30.71,19.66-24.49,7.71-50.27,4.17-77.33-.95-3.93-1.62-7.93-2-12-.12-3.31,0-6.68,0-10-.41-4.01-.41-8.01,0-12,2.06,2.14.7,12.64,1,16.5,2.49,31.74,20.77,67.45-1.49,95.52-22.53,28.4-78.24,35.76-111.9,30.87-10.86-1.58-17.03-6.35-26.93-10.07-16.05-6.03-27.33-8.13-44.23-7.76-11.02.24-11.07-10.3-13.45-18.05Z"/>
    <path class="cls-24" d="M172,146c.96-1.08,2.79,1.41,3.4,2.09,3.43,3.78,6.65,8.17,10.07,11.93,2.17,2.38,11.85,10.91,12.38,12.69.71,2.4-5.85,10.87-7.49,11.22-2.82.61-10.51-11.55-11.74-14.05-1.63-3.3-8.21-22.07-6.62-23.87Z"/>
    <path class="cls-2" d="M470,287c0,3.99,0,8.01,0,12l-1-11-47.56,5.93c-1.57,5.96-.35,5.45,4.94,4.94,7.88-.75,37.28-7.73,40.41,2.82,4.5,15.19-21.26,7.62-24.34,12.26-.38.57-1.39,11.49-1.5,13.5-.31,5.54.75,12.27.04,17.54-.14,1.07-1.73,3.86-2,5l2.13-37.87c7.37-2.46,13.41.39,20.87-3.13,6.29-2.96,5.46-7.48-.76-9.74s-20.6-1.09-27.62-.15c-2.81.38-17.98,4.6-18.61,3.89-.28-.31-.19-7.45.12-8.38.45-1.33,1.31-1.26,2.37-1.63,4.17-1.44,12.4-2.27,17.12-2.88,8.45-1.11,17.31-1.23,25.79-2.21,2.9-.34,7.37-3.21,9.6-.9Z"/>
    <path class="cls-11" d="M258,384c8.09,4.94,13.24,14.79,11.91,24.42-1.43,10.36-13.68,12.86-21.84,8.01-3.11-1.85-11.36-12.67-6.42-14.28,6.96-2.27,6.87,4.69,10.03,5.67,9.27,2.87,9.53-6.75,7.07-13.06-.83-2.14-3.77-3.82-4.75-5.75-2.61-5.15-1.1-5.5,4-5Z"/>
    <path class="cls-17" d="M182,197c.89.89-2.95,9.9-3.97,10.52-2.01,1.23-9.39,0-10-2.09-1.32-4.56,13.08-9.31,13.97-8.43Z"/>
    <path class="cls-7" d="M312.14,438.13c3.3-2.4,18.62,2.7,22.71,4.51,2.29,1.01,10,5.15,11.21,6.79,2.15,2.92,1.18,5.51-2.56,5.66-6.74.27-22.47-10.7-30.43-11.66-2.26-.52-2.18-4.39-.93-5.3Z"/>
    <path class="cls-20" d="M217.31,344.32c4.05-3.56,13.2-1.81,13.69-2.31.29-.29,0-6.89-.24-8.27-1.62-9.5-12.67-24.64-22.2-14.67-1.45,1.08-4.1,10.85-6.05,9.93-5.15-2.43.97-18.27,9.22-19.75,15.11-2.71,25.02,14.28,26.26,27.27.73,7.6-2.12,16.17,3.44,22.56,2.27,2.61,11.5,5.92,10.56,9.43-1.67,6.24-15.33-4.22-17.41-7.57-3.24-5.22-.92-11.23-9.34-11.67-2.49-.13-16.44,2.56-7.93-4.92Z"/>
    <path class="cls-34" d="M302,280c1.42-.3,3.56.19,5.36-.12,12.9-2.19,25.89-3.24,39.01-4.01,2.79-.9,1.52-9.2,2.63-10.88.14-.21,2.8-.28,3.52.98,1.11,1.96.22,8.13,2.44,9.56.84.54,3.82.71,4.04.46.61-.68.46-15.84,1.2-18.3,1.7-2.78,2.58-3.68,3.89-.29,2.95,7.66,1.02,17.76,3.17,25.83.77,2.9,3.79,7.06,3.7,9.32-.07,1.96-2.54,2.64-2.95,4.96-1.5,8.3,1.94,22.97-.46,30.54-1.86,5.87-5.68,3.47-6.5-1.6-.29-1.8.49-8.95-1.73-9.47-10.31-2.43-21.93,0-32.36.49-1.3.86-.64,1.51-.53,2.52,1.06,9.92,1.71,18.47,1.59,28.52-.02,1.68.65,4.47-1.01,5.49l-1.87-1.28c.66-9.11.03-18.19-1.73-27.12-.65-3.95-1.12-14.23,4.09-10.6.09-.78.35-1.97.9-2,9.03-.57,21.61-.56,30.64,0l1.46,2c2.82-1.12,4.16,1.35,4.03,7.42l-.8-23.73c.42-3.5,1.12-4.88,3.37-7.48-3.14-4.1-4.66-8.55-4.56-13.38-3.35,3.57-8.51,3.08-11.7-.58-.75,1.36-1.97,2.37-3.55,2.57-16.69.46-33.25,1.48-49.88,5.09l-14.26,5.59-2.15-1.51v-1c.52-.4.89-1.25,2-2,6.07-2.63,12.72-5.12,19-6Z"/>
    <path class="cls-23" d="M346,274c.17-4.3-1.01-20.04,6.31-17.88,2.51.74,3.05,7.56,6.69,1.88-.14,2.34.91,7.05-1.61,7.89-5.53,1.85-2.62-4.5-4.52-5.76-3.99-2.63-5.13,4.3-5.79,7.44-.48,2.27.85,4.94-1.07,6.43Z"/>
    <path class="cls-36" d="M383.5,405h16c1.99,0,1.99,6,0,6h-16c-2.07,0-3.45-4.78,0-6Z"/>
    <path class="cls-23" d="M302,279v1c-.34.07-1.18,1.09-2.14,1.32-5.73,1.37-11.19,3.2-16.86,4.68,6.05-4.05,11.94-5.61,19-7Z"/>
    <path class="cls-14" d="M342,295c3.72-1.21,3.49,7.52,3,8.01-.16.15-2.23-.03-3,0,1.47-2.46,1.46-5.57,0-8Z"/>
    <path class="cls-14" d="M284,347c-2.1-3.79-.73-9.85-.81-14.34l.81-.66c-.01,4.96-.22,10.05,0,15Z"/>
    <path class="cls-2" d="M472,321c-2.51-3.44-1.86-8.05-2-12,1.67,3.22,1.51,8.23,2,12Z"/>
    <path class="cls-23" d="M334,275c-1.71,2.01-5.5.67-8,1,2.47-.26,5.2-.81,8-1Z"/>
    <path class="cls-14" d="M336,303c-1.65,1.8-5.49.96-8,1,1.64-1.78,5.5-.98,8-1Z"/>
    <path class="cls-14" d="M326,304c-1.34,1.74-4.82.98-7,1,1.34-1.74,4.82-.98,7-1Z"/>
    <path class="cls-14" d="M284,321c-.22-.15-2.69.26-5-1l4.39.11.61.89Z"/>
    <path class="cls-1" d="M281,289c5.02-1.08,9.78-4.36,14.78-5.72,7.62-2.08,16.88-2.33,24.73-4.27l26.83-1.17c3.83-1.24,2.18-9.27,2.66-9.84,2.58-3.02,1.92,5.86,2.02,6.47.57,3.4,4.34,4.39,7.34,3.39,4.16-1.39-1.09-14.55,3.63-16.87,2.28,6.96.9,15.99,2.05,22.46.52,2.92,4.3,5.04,4.02,8-.19,2.04-2.64,2.74-3.05,5.05-1.56,8.72,2.23,21.79-.18,29.82-.38,1.27-2.27,2.29-2.82,1.67-.45-.51-.2-13-2.5-13h-33c-5.15,0-.71,17.32-.51,20.51.31,4.87.63,13.92,0,18.49-.69,5.01-5.03,6.08-5.8,8.7-.53,1.81.1,6.99-.2,7.3-2.18,2.23-4.81-3.9-5.98-4.51-1.96-1.02-6.67-.98-8.11.91-1.25,1.63-.15,5.55-2.39,4.59-1.81-.77-2.8-4.62-4.52-5.48-1.4-.7-3.35-.37-4.93-1.07-11.91-5.27-10.44-23.15-10.11-33.98.1-3.05,2.96-9.97-.64-11.27-2.21-.8-7.59.26-6.19-3.54.62-1.66,2.41-2.44,3.86-3.15,7.61-3.72,24.73-5.69,33.51-6.49,7.71-.7,24.15.3,30.33-1.67,3.84-1.23,4.5-6.8,2.74-9.4-2.99-4.4-66.4.13-68.57-2.94-.43-.6.09-2.5,1-2.99Z"/>
    <path class="cls-6" d="M377.51,254.01c4.62-1.32,3.19,5.12,3.49,7.49,2.3,17.98,4.14,41.98,3.04,60.05-.14,2.24-1.14,10.97-1.96,12.03-5.61,7.28-6.96-9.27-7.13-12.03-1.14-18.64-1.02-45.64.99-64.1.13-1.17.27-3.07,1.56-3.44Z"/>
    <path class="cls-16" d="M399.99,251.99c.46.69,1.93,14.27,2.05,16.46,1.11,19.98-.73,40.97-2.2,60.88-4.89,5.65-6.5-5.14-6.83-8.85-1.48-16.6.17-44.04,2.11-60.87.17-1.5.81-5.59,1.38-6.62.73-1.31,3.36-1.21,3.5-1Z"/>
    <path class="cls-23" d="M357.99,275c-.49.61-3.63-2.46-.49-4,.88.27.61,3.84.49,4Z"/>
    <path class="cls-8" d="M254,385c1.56-1.36,6.14,1.56,7.53,2.96,8.99,9.06,11.43,31.34-6.95,28.95-4.93-.64-13.9-7.25-12.57-12.37s7.57,5.17,11.47,5.54c9.96.95,9.32-10.47,5.93-17-.66-1.27-6.43-7.19-5.41-8.08Z"/>
    <path class="cls-10" d="M399,410h-14.5c-.37,0-1.71-1.51-1.5-2.49.41-1.88,18.1-3.91,16,2.49Z"/>
    <path class="cls-3" d="M355.61,294.08c6.79-2.22,7,10.98,2.78,11.87-3.24.68-6.35-10.7-2.78-11.87Z"/>
    <path class="cls-25" d="M377,257c3.5-3.91,3.03,13.33,4,14.5-.14,17.99,2.68,38.12,1.05,56.04-.13,1.46-.89,6.43-2.55,6.44-.18,0-2.5-2.31-2.5-2.48v-74.5Z"/>
    <path class="cls-35" d="M397.99,329c-1.67,1.79-1.69-.37-1.97-1.5-3.03-12.63-.52-31.82.02-44.95.33-8.03-.86-16.14.96-24.04.33-1.42,0-3.11,1.99-3.5-.06,2.55.9,4.92,1.05,7.46.94,15.26.91,36.81,0,52.09-.12,1.98-1.56,13.92-2.05,14.46Z"/>
    <path class="cls-27" d="M359,304c-2.58,2.87-4.06-7.8-2.99-8.99,2.58-2.87,4.06,7.8,2.99,8.99Z"/>
  </g>
</svg>